<svg width="88" height="87" viewBox="0 0 88 87" fill="none" xmlns="http://www.w3.org/2000/svg">
<g filter="url(#filter0_d_11281_426551)">
<path d="M65.0371 16.8268C60.1382 11.8886 53.6725 8.81693 46.7547 8.14124C39.8369 7.46556 32.9004 9.22826 27.1412 13.1255C21.382 17.0226 17.1609 22.8101 15.2056 29.4901C13.2504 36.17 13.6836 43.3239 16.4305 49.7182C16.7168 50.3126 16.8107 50.9816 16.6992 51.6319L14.0718 64.2802C13.9706 64.7651 13.9912 65.2676 14.1319 65.7426C14.2726 66.2175 14.529 66.65 14.8779 67.0012C15.164 67.2856 15.5045 67.509 15.8791 67.658C16.2537 67.8071 16.6545 67.8786 17.0574 67.8683H17.6546L30.4332 65.2968C31.0827 65.2186 31.7413 65.3113 32.344 65.5659C38.7289 68.3169 45.872 68.7507 52.542 66.7926C59.212 64.8344 64.9908 60.607 68.8822 54.8392C72.7736 49.0713 74.5336 42.1245 73.859 35.1963C73.1843 28.2681 70.1172 21.7928 65.1863 16.8866L65.0371 16.8268Z" fill="#555555"/>
</g>
<path d="M44.0637 20.2808C44.9751 20.2808 45.7139 20.9977 45.7139 21.8821V23.5969C51.3119 24.3737 55.6154 29.0456 55.6154 34.6929V41.4186L57.7051 43.852C59.4966 45.938 57.9678 49.1051 55.1698 49.1051H32.9587C30.1606 49.1051 28.632 45.938 30.4234 43.852L32.5131 41.4186V34.6929C32.5131 29.046 36.8159 24.3743 42.4136 23.5971V21.8821C42.4136 20.9977 43.1524 20.2808 44.0637 20.2808Z" fill="white"/>
<path d="M39.9748 53.0464C39.4715 52.4697 39.0672 51.7902 38.7827 51.0435H49.2175C48.933 51.7902 48.5288 52.4697 48.0254 53.0464C47.4968 53.652 46.8692 54.1323 46.1785 54.46C45.488 54.7878 44.7476 54.9565 44.0002 54.9565C43.2525 54.9565 42.5123 54.7878 41.8216 54.46C41.1309 54.1323 40.5034 53.652 39.9748 53.0464Z" fill="white"/>
<defs>
<filter id="filter0_d_11281_426551" x="0.956521" y="0.173913" width="86.087" height="86.087" filterUnits="userSpaceOnUse" color-interpolation-filters="sRGB">
<feFlood flood-opacity="0" result="BackgroundImageFix"/>
<feColorMatrix in="SourceAlpha" type="matrix" values="0 0 0 0 0 0 0 0 0 0 0 0 0 0 0 0 0 0 127 0" result="hardAlpha"/>
<feOffset dy="5.21739"/>
<feGaussianBlur stdDeviation="6.52174"/>
<feComposite in2="hardAlpha" operator="out"/>
<feColorMatrix type="matrix" values="0 0 0 0 0 0 0 0 0 0 0 0 0 0 0 0 0 0 0.1 0"/>
<feBlend mode="normal" in2="BackgroundImageFix" result="effect1_dropShadow_11281_426551"/>
<feBlend mode="normal" in="SourceGraphic" in2="effect1_dropShadow_11281_426551" result="shape"/>
</filter>
</defs>
</svg>
